<?xml version="1.0" encoding="UTF-8" standalone="no"?>
<!DOCTYPE svg PUBLIC "-//W3C//DTD SVG 1.1//EN"
 "http://www.w3.org/Graphics/SVG/1.1/DTD/svg11.dtd">
<!-- Generated by graphviz version 2.49.0 (20210829.0051)
 -->
<!-- Title: snakemake_dag Pages: 1 -->
<svg width="883pt" height="548pt"
 viewBox="0.00 0.00 883.00 548.00" xmlns="http://www.w3.org/2000/svg" xmlns:xlink="http://www.w3.org/1999/xlink">
<g id="graph0" class="graph" transform="scale(1 1) rotate(0) translate(4 544)">
<title>snakemake_dag</title>
<polygon fill="white" stroke="transparent" points="-4,4 -4,-544 879,-544 879,4 -4,4"/>
<!-- 0 -->
<g id="node1" class="node">
<title>0</title>
<path fill="none" stroke="#56b9d8" stroke-width="2" d="M557,-36C557,-36 527,-36 527,-36 521,-36 515,-30 515,-24 515,-24 515,-12 515,-12 515,-6 521,0 527,0 527,0 557,0 557,0 563,0 569,-6 569,-12 569,-12 569,-24 569,-24 569,-30 563,-36 557,-36"/>
<text text-anchor="middle" x="542" y="-15.5" font-family="sans" font-size="10.00">all</text>
</g>
<!-- 1 -->
<g id="node2" class="node">
<title>1</title>
<path fill="none" stroke="#56d89a" stroke-width="2" d="M97.5,-180C97.5,-180 40.5,-180 40.5,-180 34.5,-180 28.5,-174 28.5,-168 28.5,-168 28.5,-156 28.5,-156 28.5,-150 34.5,-144 40.5,-144 40.5,-144 97.5,-144 97.5,-144 103.5,-144 109.5,-150 109.5,-156 109.5,-156 109.5,-168 109.5,-168 109.5,-174 103.5,-180 97.5,-180"/>
<text text-anchor="middle" x="69" y="-159.5" font-family="sans" font-size="10.00">qc_raw_fastq</text>
</g>
<!-- 1&#45;&gt;0 -->
<g id="edge10" class="edge">
<title>1&#45;&gt;0</title>
<path fill="none" stroke="grey" stroke-width="2" d="M91.37,-143.93C119.38,-123.45 169.6,-89.68 218,-72 317.45,-35.67 443.16,-24.16 504.66,-20.57"/>
<polygon fill="grey" stroke="grey" stroke-width="2" points="504.88,-24.07 514.68,-20.03 504.5,-17.08 504.88,-24.07"/>
</g>
<!-- 14 -->
<g id="node15" class="node">
<title>14</title>
<path fill="none" stroke="#56d8d8" stroke-width="2" d="M323,-108C323,-108 293,-108 293,-108 287,-108 281,-102 281,-96 281,-96 281,-84 281,-84 281,-78 287,-72 293,-72 293,-72 323,-72 323,-72 329,-72 335,-78 335,-84 335,-84 335,-96 335,-96 335,-102 329,-108 323,-108"/>
<text text-anchor="middle" x="308" y="-87.5" font-family="sans" font-size="10.00">multiqc</text>
</g>
<!-- 1&#45;&gt;14 -->
<g id="edge31" class="edge">
<title>1&#45;&gt;14</title>
<path fill="none" stroke="grey" stroke-width="2" d="M109.58,-146.71C112.42,-145.77 115.25,-144.86 118,-144 170.81,-127.49 232.64,-110.71 271.07,-100.58"/>
<polygon fill="grey" stroke="grey" stroke-width="2" points="272,-103.95 280.79,-98.02 270.22,-97.18 272,-103.95"/>
</g>
<!-- 2 -->
<g id="node3" class="node">
<title>2</title>
<path fill="none" stroke="#d6d856" stroke-width="2" d="M269.5,-540C269.5,-540 220.5,-540 220.5,-540 214.5,-540 208.5,-534 208.5,-528 208.5,-528 208.5,-516 208.5,-516 208.5,-510 214.5,-504 220.5,-504 220.5,-504 269.5,-504 269.5,-504 275.5,-504 281.5,-510 281.5,-516 281.5,-516 281.5,-528 281.5,-528 281.5,-534 275.5,-540 269.5,-540"/>
<text text-anchor="middle" x="245" y="-519.5" font-family="sans" font-size="10.00">clean_fastq</text>
</g>
<!-- 2&#45;&gt;0 -->
<g id="edge4" class="edge">
<title>2&#45;&gt;0</title>
<path fill="none" stroke="grey" stroke-width="2" d="M208.32,-516.75C139.97,-506.58 0,-474.13 0,-379 0,-379 0,-379 0,-161 0,-56.44 382.24,-27.35 504.72,-20.72"/>
<polygon fill="grey" stroke="grey" stroke-width="2" points="504.95,-24.21 514.75,-20.19 504.58,-17.22 504.95,-24.21"/>
</g>
<!-- 3 -->
<g id="node4" class="node">
<title>3</title>
<path fill="none" stroke="#78d856" stroke-width="2" d="M204.5,-180C204.5,-180 139.5,-180 139.5,-180 133.5,-180 127.5,-174 127.5,-168 127.5,-168 127.5,-156 127.5,-156 127.5,-150 133.5,-144 139.5,-144 139.5,-144 204.5,-144 204.5,-144 210.5,-144 216.5,-150 216.5,-156 216.5,-156 216.5,-168 216.5,-168 216.5,-174 210.5,-180 204.5,-180"/>
<text text-anchor="middle" x="172" y="-159.5" font-family="sans" font-size="10.00">qc_clean_fastq</text>
</g>
<!-- 2&#45;&gt;3 -->
<g id="edge13" class="edge">
<title>2&#45;&gt;3</title>
<path fill="none" stroke="grey" stroke-width="2" d="M233.6,-503.9C217.49,-478.02 190,-426.85 190,-379 190,-379 190,-379 190,-305 190,-264.9 182.85,-218.92 177.56,-190.42"/>
<polygon fill="grey" stroke="grey" stroke-width="2" points="180.96,-189.56 175.64,-180.4 174.08,-190.88 180.96,-189.56"/>
</g>
<!-- 4 -->
<g id="node5" class="node">
<title>4</title>
<path fill="none" stroke="#d87556" stroke-width="2" d="M706,-468C706,-468 620,-468 620,-468 614,-468 608,-462 608,-456 608,-456 608,-444 608,-444 608,-438 614,-432 620,-432 620,-432 706,-432 706,-432 712,-432 718,-438 718,-444 718,-444 718,-456 718,-456 718,-462 712,-468 706,-468"/>
<text text-anchor="middle" x="663" y="-447.5" font-family="sans" font-size="10.00">de_novo_assembly</text>
</g>
<!-- 2&#45;&gt;4 -->
<g id="edge14" class="edge">
<title>2&#45;&gt;4</title>
<path fill="none" stroke="grey" stroke-width="2" d="M281.73,-514.85C352.61,-502.98 509.09,-476.77 597.98,-461.89"/>
<polygon fill="grey" stroke="grey" stroke-width="2" points="598.66,-465.32 607.94,-460.22 597.5,-458.42 598.66,-465.32"/>
</g>
<!-- 10 -->
<g id="node11" class="node">
<title>10</title>
<path fill="none" stroke="#569ad8" stroke-width="2" d="M369,-324C369,-324 289,-324 289,-324 283,-324 277,-318 277,-312 277,-312 277,-300 277,-300 277,-294 283,-288 289,-288 289,-288 369,-288 369,-288 375,-288 381,-294 381,-300 381,-300 381,-312 381,-312 381,-318 375,-324 369,-324"/>
<text text-anchor="middle" x="329" y="-303.5" font-family="sans" font-size="10.00">picard_insert_size</text>
</g>
<!-- 2&#45;&gt;10 -->
<g id="edge22" class="edge">
<title>2&#45;&gt;10</title>
<path fill="none" stroke="grey" stroke-width="2" d="M251.73,-503.85C266.32,-466.68 300.96,-378.44 318.47,-333.82"/>
<polygon fill="grey" stroke="grey" stroke-width="2" points="321.84,-334.82 322.24,-324.23 315.32,-332.26 321.84,-334.82"/>
</g>
<!-- 2&#45;&gt;14 -->
<g id="edge29" class="edge">
<title>2&#45;&gt;14</title>
<path fill="none" stroke="grey" stroke-width="2" d="M245,-503.95C245,-477.29 245,-424.11 245,-379 245,-379 245,-379 245,-233 245,-189.19 270.36,-143.81 288.9,-116.49"/>
<polygon fill="grey" stroke="grey" stroke-width="2" points="291.78,-118.48 294.64,-108.28 286.04,-114.47 291.78,-118.48"/>
</g>
<!-- 3&#45;&gt;0 -->
<g id="edge6" class="edge">
<title>3&#45;&gt;0</title>
<path fill="none" stroke="grey" stroke-width="2" d="M185.98,-143.92C203.74,-123.44 236.4,-89.66 272,-72 348.83,-33.88 450.69,-23.16 504.68,-20.16"/>
<polygon fill="grey" stroke="grey" stroke-width="2" points="505.01,-23.65 514.82,-19.66 504.66,-16.66 505.01,-23.65"/>
</g>
<!-- 3&#45;&gt;14 -->
<g id="edge30" class="edge">
<title>3&#45;&gt;14</title>
<path fill="none" stroke="grey" stroke-width="2" d="M205.27,-143.88C225.32,-133.56 250.87,-120.4 271.48,-109.8"/>
<polygon fill="grey" stroke="grey" stroke-width="2" points="273.27,-112.81 280.56,-105.12 270.07,-106.59 273.27,-112.81"/>
</g>
<!-- 4&#45;&gt;0 -->
<g id="edge2" class="edge">
<title>4&#45;&gt;0</title>
<path fill="none" stroke="grey" stroke-width="2" d="M718.15,-437.34C780.96,-420.44 875,-382.53 875,-307 875,-307 875,-307 875,-161 875,-33.7 666.53,-18.95 579.49,-18.34"/>
<polygon fill="grey" stroke="grey" stroke-width="2" points="579.25,-14.84 569.25,-18.33 579.25,-21.84 579.25,-14.84"/>
</g>
<!-- 5 -->
<g id="node6" class="node">
<title>5</title>
<path fill="none" stroke="#56d8b9" stroke-width="2" d="M834.5,-252C834.5,-252 803.5,-252 803.5,-252 797.5,-252 791.5,-246 791.5,-240 791.5,-240 791.5,-228 791.5,-228 791.5,-222 797.5,-216 803.5,-216 803.5,-216 834.5,-216 834.5,-216 840.5,-216 846.5,-222 846.5,-228 846.5,-228 846.5,-240 846.5,-240 846.5,-246 840.5,-252 834.5,-252"/>
<text text-anchor="middle" x="819" y="-231.5" font-family="sans" font-size="10.00">checkm</text>
</g>
<!-- 4&#45;&gt;5 -->
<g id="edge15" class="edge">
<title>4&#45;&gt;5</title>
<path fill="none" stroke="grey" stroke-width="2" d="M675.5,-431.85C702.89,-394.28 768.28,-304.58 800.47,-260.43"/>
<polygon fill="grey" stroke="grey" stroke-width="2" points="803.38,-262.38 806.44,-252.23 797.72,-258.25 803.38,-262.38"/>
</g>
<!-- 7 -->
<g id="node8" class="node">
<title>7</title>
<path fill="none" stroke="#97d856" stroke-width="2" d="M611,-396C611,-396 497,-396 497,-396 491,-396 485,-390 485,-384 485,-384 485,-372 485,-372 485,-366 491,-360 497,-360 497,-360 611,-360 611,-360 617,-360 623,-366 623,-372 623,-372 623,-384 623,-384 623,-390 617,-396 611,-396"/>
<text text-anchor="middle" x="554" y="-375.5" font-family="sans" font-size="10.00">filter_de_novo_assembly</text>
</g>
<!-- 4&#45;&gt;7 -->
<g id="edge18" class="edge">
<title>4&#45;&gt;7</title>
<path fill="none" stroke="grey" stroke-width="2" d="M636.34,-431.88C622.22,-422.81 604.69,-411.55 589.44,-401.76"/>
<polygon fill="grey" stroke="grey" stroke-width="2" points="591.07,-398.65 580.77,-396.19 587.29,-404.54 591.07,-398.65"/>
</g>
<!-- 5&#45;&gt;0 -->
<g id="edge9" class="edge">
<title>5&#45;&gt;0</title>
<path fill="none" stroke="grey" stroke-width="2" d="M820.14,-215.86C821.32,-183 818.87,-110.94 779,-72 750.97,-44.62 638.74,-29.06 579.33,-22.59"/>
<polygon fill="grey" stroke="grey" stroke-width="2" points="579.54,-19.09 569.23,-21.52 578.81,-26.06 579.54,-19.09"/>
</g>
<!-- 15 -->
<g id="node16" class="node">
<title>15</title>
<path fill="none" stroke="#d89556" stroke-width="2" d="M560.5,-180C560.5,-180 497.5,-180 497.5,-180 491.5,-180 485.5,-174 485.5,-168 485.5,-168 485.5,-156 485.5,-156 485.5,-150 491.5,-144 497.5,-144 497.5,-144 560.5,-144 560.5,-144 566.5,-144 572.5,-150 572.5,-156 572.5,-156 572.5,-168 572.5,-168 572.5,-174 566.5,-180 560.5,-180"/>
<text text-anchor="middle" x="529" y="-159.5" font-family="sans" font-size="10.00">parse_checkm</text>
</g>
<!-- 5&#45;&gt;15 -->
<g id="edge34" class="edge">
<title>5&#45;&gt;15</title>
<path fill="none" stroke="grey" stroke-width="2" d="M791.42,-219.42C788.28,-218.15 785.1,-216.97 782,-216 698.86,-189.88 671.55,-200.98 582.52,-179.91"/>
<polygon fill="grey" stroke="grey" stroke-width="2" points="583.09,-176.44 572.54,-177.47 581.43,-183.24 583.09,-176.44"/>
</g>
<!-- 6 -->
<g id="node7" class="node">
<title>6</title>
<path fill="none" stroke="#567bd8" stroke-width="2" d="M665.5,-324C665.5,-324 594.5,-324 594.5,-324 588.5,-324 582.5,-318 582.5,-312 582.5,-312 582.5,-300 582.5,-300 582.5,-294 588.5,-288 594.5,-288 594.5,-288 665.5,-288 665.5,-288 671.5,-288 677.5,-294 677.5,-300 677.5,-300 677.5,-312 677.5,-312 677.5,-318 671.5,-324 665.5,-324"/>
<text text-anchor="middle" x="630" y="-303.5" font-family="sans" font-size="10.00">identify_species</text>
</g>
<!-- 6&#45;&gt;0 -->
<g id="edge12" class="edge">
<title>6&#45;&gt;0</title>
<path fill="none" stroke="grey" stroke-width="2" d="M624.7,-287.92C619.83,-268.66 615.38,-237.26 630,-216 655.35,-179.14 698.65,-216.86 724,-180 736.92,-161.22 724.54,-84.39 714,-72 680.64,-32.79 618.96,-22.09 579.25,-19.46"/>
<polygon fill="grey" stroke="grey" stroke-width="2" points="579.33,-15.95 569.16,-18.93 578.96,-22.95 579.33,-15.95"/>
</g>
<!-- 6&#45;&gt;5 -->
<g id="edge16" class="edge">
<title>6&#45;&gt;5</title>
<path fill="none" stroke="grey" stroke-width="2" d="M677.67,-289.67C707.84,-279.66 747.52,-265.89 782,-252 782.09,-251.96 782.19,-251.92 782.28,-251.89"/>
<polygon fill="grey" stroke="grey" stroke-width="2" points="783.4,-255.22 791.24,-248.1 780.67,-248.77 783.4,-255.22"/>
</g>
<!-- 13 -->
<g id="node14" class="node">
<title>13</title>
<path fill="none" stroke="#56d87b" stroke-width="2" d="M761,-252C761,-252 651,-252 651,-252 645,-252 639,-246 639,-240 639,-240 639,-228 639,-228 639,-222 645,-216 651,-216 651,-216 761,-216 761,-216 767,-216 773,-222 773,-228 773,-228 773,-240 773,-240 773,-246 767,-252 761,-252"/>
<text text-anchor="middle" x="706" y="-231.5" font-family="sans" font-size="10.00">top_species_multireport</text>
</g>
<!-- 6&#45;&gt;13 -->
<g id="edge26" class="edge">
<title>6&#45;&gt;13</title>
<path fill="none" stroke="grey" stroke-width="2" d="M648.79,-287.7C658.17,-279.05 669.68,-268.45 679.91,-259.03"/>
<polygon fill="grey" stroke="grey" stroke-width="2" points="682.45,-261.45 687.43,-252.1 677.7,-256.3 682.45,-261.45"/>
</g>
<!-- 6&#45;&gt;14 -->
<g id="edge33" class="edge">
<title>6&#45;&gt;14</title>
<path fill="none" stroke="grey" stroke-width="2" d="M608.12,-287.81C578.11,-264.08 522.7,-219.7 477,-180 459.19,-164.53 457.91,-156.66 438,-144 408.82,-125.45 372.05,-111.18 345.07,-102.15"/>
<polygon fill="grey" stroke="grey" stroke-width="2" points="345.84,-98.72 335.25,-98.94 343.67,-105.37 345.84,-98.72"/>
</g>
<!-- 7&#45;&gt;6 -->
<g id="edge17" class="edge">
<title>7&#45;&gt;6</title>
<path fill="none" stroke="grey" stroke-width="2" d="M572.79,-359.7C582.17,-351.05 593.68,-340.45 603.91,-331.03"/>
<polygon fill="grey" stroke="grey" stroke-width="2" points="606.45,-333.45 611.43,-324.1 601.7,-328.3 606.45,-333.45"/>
</g>
<!-- 8 -->
<g id="node9" class="node">
<title>8</title>
<path fill="none" stroke="#d8b456" stroke-width="2" d="M417,-180C417,-180 323,-180 323,-180 317,-180 311,-174 311,-168 311,-168 311,-156 311,-156 311,-150 317,-144 323,-144 323,-144 417,-144 417,-144 423,-144 429,-150 429,-156 429,-156 429,-168 429,-168 429,-174 423,-180 417,-180"/>
<text text-anchor="middle" x="370" y="-159.5" font-family="sans" font-size="10.00">run_quast_combined</text>
</g>
<!-- 7&#45;&gt;8 -->
<g id="edge19" class="edge">
<title>7&#45;&gt;8</title>
<path fill="none" stroke="grey" stroke-width="2" d="M538.34,-359.8C516.65,-335.87 476.35,-291.07 443,-252 424.94,-230.84 404.93,-206.37 390.44,-188.45"/>
<polygon fill="grey" stroke="grey" stroke-width="2" points="392.8,-185.81 383.8,-180.23 387.35,-190.21 392.8,-185.81"/>
</g>
<!-- 9 -->
<g id="node10" class="node">
<title>9</title>
<path fill="none" stroke="#59d856" stroke-width="2" d="M703,-180C703,-180 603,-180 603,-180 597,-180 591,-174 591,-168 591,-168 591,-156 591,-156 591,-150 597,-144 603,-144 603,-144 703,-144 703,-144 709,-144 715,-150 715,-156 715,-156 715,-168 715,-168 715,-174 709,-180 703,-180"/>
<text text-anchor="middle" x="653" y="-159.5" font-family="sans" font-size="10.00">pileup_contig_metrics</text>
</g>
<!-- 7&#45;&gt;9 -->
<g id="edge21" class="edge">
<title>7&#45;&gt;9</title>
<path fill="none" stroke="grey" stroke-width="2" d="M555.27,-359.69C558.23,-328.68 567.75,-262.54 597,-216 603.73,-205.29 613.13,-195.26 622.3,-186.87"/>
<polygon fill="grey" stroke="grey" stroke-width="2" points="624.67,-189.45 629.9,-180.23 620.06,-184.18 624.67,-189.45"/>
</g>
<!-- 7&#45;&gt;10 -->
<g id="edge23" class="edge">
<title>7&#45;&gt;10</title>
<path fill="none" stroke="grey" stroke-width="2" d="M499.25,-359.97C466.57,-349.8 424.98,-336.86 391.08,-326.31"/>
<polygon fill="grey" stroke="grey" stroke-width="2" points="391.87,-322.9 381.28,-323.27 389.79,-329.58 391.87,-322.9"/>
</g>
<!-- 8&#45;&gt;0 -->
<g id="edge3" class="edge">
<title>8&#45;&gt;0</title>
<path fill="none" stroke="grey" stroke-width="2" d="M375.18,-143.72C381.9,-123.98 395.38,-91.86 417,-72 441.86,-49.16 478.02,-35.29 505.06,-27.5"/>
<polygon fill="grey" stroke="grey" stroke-width="2" points="506.21,-30.82 514.94,-24.81 504.37,-24.06 506.21,-30.82"/>
</g>
<!-- 8&#45;&gt;14 -->
<g id="edge28" class="edge">
<title>8&#45;&gt;14</title>
<path fill="none" stroke="grey" stroke-width="2" d="M354.67,-143.7C347.24,-135.3 338.18,-125.07 330.02,-115.86"/>
<polygon fill="grey" stroke="grey" stroke-width="2" points="332.4,-113.27 323.15,-108.1 327.16,-117.91 332.4,-113.27"/>
</g>
<!-- 9&#45;&gt;0 -->
<g id="edge7" class="edge">
<title>9&#45;&gt;0</title>
<path fill="none" stroke="grey" stroke-width="2" d="M639.33,-143.85C631.1,-133.49 620.42,-120.01 611,-108 594.21,-86.58 575.27,-62.13 561.49,-44.29"/>
<polygon fill="grey" stroke="grey" stroke-width="2" points="564.05,-41.88 555.17,-36.1 558.51,-46.16 564.05,-41.88"/>
</g>
<!-- 11 -->
<g id="node12" class="node">
<title>11</title>
<path fill="none" stroke="#d85656" stroke-width="2" d="M692.5,-108C692.5,-108 631.5,-108 631.5,-108 625.5,-108 619.5,-102 619.5,-96 619.5,-96 619.5,-84 619.5,-84 619.5,-78 625.5,-72 631.5,-72 631.5,-72 692.5,-72 692.5,-72 698.5,-72 704.5,-78 704.5,-84 704.5,-84 704.5,-96 704.5,-96 704.5,-102 698.5,-108 692.5,-108"/>
<text text-anchor="middle" x="662" y="-87.5" font-family="sans" font-size="10.00">parse_bbtools</text>
</g>
<!-- 9&#45;&gt;11 -->
<g id="edge24" class="edge">
<title>9&#45;&gt;11</title>
<path fill="none" stroke="grey" stroke-width="2" d="M655.22,-143.7C656.22,-135.98 657.41,-126.71 658.51,-118.11"/>
<polygon fill="grey" stroke="grey" stroke-width="2" points="662,-118.47 659.8,-108.1 655.05,-117.58 662,-118.47"/>
</g>
<!-- 12 -->
<g id="node13" class="node">
<title>12</title>
<path fill="none" stroke="#b6d856" stroke-width="2" d="M550.5,-108C550.5,-108 437.5,-108 437.5,-108 431.5,-108 425.5,-102 425.5,-96 425.5,-96 425.5,-84 425.5,-84 425.5,-78 431.5,-72 437.5,-72 437.5,-72 550.5,-72 550.5,-72 556.5,-72 562.5,-78 562.5,-84 562.5,-84 562.5,-96 562.5,-96 562.5,-102 556.5,-108 550.5,-108"/>
<text text-anchor="middle" x="494" y="-87.5" font-family="sans" font-size="10.00">parse_bbtools_summary</text>
</g>
<!-- 9&#45;&gt;12 -->
<g id="edge25" class="edge">
<title>9&#45;&gt;12</title>
<path fill="none" stroke="grey" stroke-width="2" d="M614.1,-143.88C592.37,-134.31 565.1,-122.3 542.04,-112.15"/>
<polygon fill="grey" stroke="grey" stroke-width="2" points="543.33,-108.89 532.77,-108.07 540.51,-115.3 543.33,-108.89"/>
</g>
<!-- 10&#45;&gt;9 -->
<g id="edge20" class="edge">
<title>10&#45;&gt;9</title>
<path fill="none" stroke="grey" stroke-width="2" d="M368.08,-287.87C427.4,-261.88 540.04,-212.51 604.5,-184.26"/>
<polygon fill="grey" stroke="grey" stroke-width="2" points="606.28,-187.3 614.03,-180.08 603.47,-180.89 606.28,-187.3"/>
</g>
<!-- 10&#45;&gt;14 -->
<g id="edge32" class="edge">
<title>10&#45;&gt;14</title>
<path fill="none" stroke="grey" stroke-width="2" d="M324.07,-287.8C317.48,-263.87 306.17,-219.08 302,-180 300.3,-164.09 301.1,-159.97 302,-144 302.48,-135.55 303.38,-126.38 304.34,-118.07"/>
<polygon fill="grey" stroke="grey" stroke-width="2" points="307.81,-118.5 305.56,-108.14 300.87,-117.64 307.81,-118.5"/>
</g>
<!-- 11&#45;&gt;0 -->
<g id="edge1" class="edge">
<title>11&#45;&gt;0</title>
<path fill="none" stroke="grey" stroke-width="2" d="M632.64,-71.88C616.1,-62.23 595.31,-50.1 577.81,-39.89"/>
<polygon fill="grey" stroke="grey" stroke-width="2" points="579.4,-36.77 569,-34.75 575.87,-42.81 579.4,-36.77"/>
</g>
<!-- 12&#45;&gt;0 -->
<g id="edge5" class="edge">
<title>12&#45;&gt;0</title>
<path fill="none" stroke="grey" stroke-width="2" d="M505.87,-71.7C511.5,-63.47 518.35,-53.48 524.57,-44.42"/>
<polygon fill="grey" stroke="grey" stroke-width="2" points="527.5,-46.33 530.27,-36.1 521.73,-42.37 527.5,-46.33"/>
</g>
<!-- 13&#45;&gt;0 -->
<g id="edge8" class="edge">
<title>13&#45;&gt;0</title>
<path fill="none" stroke="grey" stroke-width="2" d="M729.3,-215.82C739.9,-206.54 751.32,-194.09 757,-180 774.94,-135.48 786.6,-109.79 757,-72 735.34,-44.35 635.07,-29.17 579.44,-22.75"/>
<polygon fill="grey" stroke="grey" stroke-width="2" points="579.6,-19.24 569.27,-21.61 578.82,-26.2 579.6,-19.24"/>
</g>
<!-- 14&#45;&gt;0 -->
<g id="edge11" class="edge">
<title>14&#45;&gt;0</title>
<path fill="none" stroke="grey" stroke-width="2" d="M335.3,-80.83C377.31,-68.27 457.87,-44.17 505.05,-30.05"/>
<polygon fill="grey" stroke="grey" stroke-width="2" points="506.3,-33.33 514.87,-27.11 504.29,-26.63 506.3,-33.33"/>
</g>
<!-- 15&#45;&gt;14 -->
<g id="edge27" class="edge">
<title>15&#45;&gt;14</title>
<path fill="none" stroke="grey" stroke-width="2" d="M485.34,-147.17C444.34,-134.19 383.69,-114.98 345.01,-102.72"/>
<polygon fill="grey" stroke="grey" stroke-width="2" points="345.79,-99.3 335.2,-99.62 343.68,-105.97 345.79,-99.3"/>
</g>
</g>
</svg>
